<svg width="19" height="21" fill="none" xmlns="http://www.w3.org/2000/svg"><g clip-path="url(#a)"><path d="M.75 18.625c0 1.0352.83984 1.875 1.875 1.875h13.75c1.0352 0 1.875-.8398 1.875-1.875V8H.75v10.625Zm12.5-7.6562c0-.2579.2109-.4688.4688-.4688h1.5624c.2579 0 .4688.2109.4688.4688v1.5624c0 .2579-.2109.4688-.4688.4688h-1.5624c-.2579 0-.4688-.2109-.4688-.4688v-1.5624Zm0 5c0-.2579.2109-.4688.4688-.4688h1.5624c.2579 0 .4688.2109.4688.4688v1.5624c0 .2579-.2109.4688-.4688.4688h-1.5624c-.2579 0-.4688-.2109-.4688-.4688v-1.5624Zm-5-5c0-.2579.21094-.4688.46875-.4688h1.56245c.2579 0 .4688.2109.4688.4688v1.5624c0 .2579-.2109.4688-.4688.4688H8.71875c-.25781 0-.46875-.2109-.46875-.4688v-1.5624Zm0 5c0-.2579.21094-.4688.46875-.4688h1.56245c.2579 0 .4688.2109.4688.4688v1.5624c0 .2579-.2109.4688-.4688.4688H8.71875c-.25781 0-.46875-.2109-.46875-.4688v-1.5624Zm-5-5c0-.2579.21094-.4688.46875-.4688h1.5625c.25781 0 .46875.2109.46875.4688v1.5624c0 .2579-.21094.4688-.46875.4688h-1.5625c-.25781 0-.46875-.2109-.46875-.4688v-1.5624Zm0 5c0-.2579.21094-.4688.46875-.4688h1.5625c.25781 0 .46875.2109.46875.4688v1.5624c0 .2579-.21094.4688-.46875.4688h-1.5625c-.25781 0-.46875-.2109-.46875-.4688v-1.5624ZM16.375 3H14.5V1.125c0-.34375-.2812-.625-.625-.625h-1.25c-.3438 0-.625.28125-.625.625V3H7V1.125C7 .78125 6.71875.5 6.375.5h-1.25c-.34375 0-.625.28125-.625.625V3H2.625C1.58984 3 .75 3.83984.75 4.875V6.75h17.5V4.875C18.25 3.83984 17.4102 3 16.375 3Z" fill="#C4C4C4"/></g><defs><clipPath id="a"><path fill="#fff" transform="translate(.5 .5)" d="M0 0h18v20H0z"/></clipPath></defs></svg>